IKResults-ET4
version=1
nRows=12
nColumns=24
inDegrees=yes

Units are S.I. units (second, meters, Newtons, ...)
If the header above contains a line with 'inDegrees', this indicates whether rotational values are in degrees (yes) or radians (no).

endheader
time	pelvis_tilt	pelvis_list	pelvis_rotation	pelvis_tx	pelvis_ty	pelvis_tz	hip_flexion_r	hip_adduction_r	hip_rotation_r	knee_angle_r	ankle_angle_r	subtalar_angle_r	mtp_angle_r	hip_flexion_l	hip_adduction_l	hip_rotation_l	knee_angle_l	ankle_angle_l	subtalar_angle_l	mtp_angle_l	lumbar_extension	lumbar_bending	lumbar_rotation
      5.34000000	      2.25885730	      1.17850001	   -186.62708408	      0.03206469	      0.96098743	     -0.05300812	    -12.31453504	      2.80140261	      4.18464453	    -24.75061752	     17.88160060	     11.55434147	      0.00000000	     34.25718929	     -2.43053904	     -2.79808856	    -14.77545575	     20.13411911	      5.69327253	      0.00000000	    -14.54336072	     -3.00944453	     14.02253192
      5.35000000	      2.26192506	      0.96920487	   -186.96244538	      0.01338510	      0.95860691	     -0.05205431	    -12.53598920	      2.27070733	      4.06798506	    -26.10321996	     16.70538179	     11.70664319	      0.00000000	     33.79508214	     -2.04178160	     -2.55778711	    -15.41571467	     19.35636583	      5.62873502	      0.00000000	    -14.20671495	     -3.43774160	     14.13837101
      5.36000000	      2.43457596	      0.68126825	   -187.21073139	     -0.00503734	      0.95651265	     -0.05095424	    -12.37725581	      1.64847018	      3.71191814	    -27.66118514	     15.19917495	     11.94370789	      0.00000000	     33.40862373	     -1.56516374	     -2.08204679	    -15.47965127	     16.91122253	      4.06885523	      0.00000000	    -13.71623815	     -3.89112901	     14.31787001
      5.37000000	      2.75177210	      0.24663367	   -187.36859030	     -0.02308790	      0.95488837	     -0.04960844	    -11.84061174	      0.84994483	      3.12808449	    -29.43147367	     13.32953810	     12.51468559	      0.00000000	     33.15812214	     -0.95442786	     -1.74856977	    -15.35371734	     13.34026386	      2.15242303	      0.00000000	    -13.11463405	     -4.51020672	     14.27288833
      5.38000000	      3.19299078	     -0.40084335	   -187.40590786	     -0.04062281	      0.95383798	     -0.04789317	    -10.89848137	     -0.22980817	      2.28904952	    -31.44275049	     11.15028331	     13.49281861	      0.00000000	     33.24273605	     -0.16486058	     -1.69591245	    -15.67260715	     10.20209319	      0.62830946	      0.00000000	    -12.46870581	     -5.30413584	     14.03933034
      5.39000000	      3.54842515	     -1.29008388	   -187.43547393	     -0.05820948	      0.95347866	     -0.04609338	     -9.83548817	     -1.64037820	      1.38616465	    -33.68843163	      8.57775117	     14.44245114	      0.00000000	     33.33681716	      0.88899326	     -1.21581534	    -16.41852751	      7.68545903	     -1.38611299	      0.00000000	    -11.93719437	     -6.37743247	     13.67631147
      5.40000000	      3.61789857	     -2.25638854	   -187.22807199	     -0.07581636	      0.95392268	     -0.04377086	     -8.95553076	     -3.18403196	      0.35854964	    -36.05122299	      5.68911937	     15.28944272	      0.00000000	     33.33725777	      2.17417114	     -0.69873603	    -17.70723495	      5.65384507	     -2.98966633	      0.00000000	    -11.74650456	     -7.51717596	     13.14491768
      5.41000000	      3.61134316	     -3.22081266	   -186.91495201	     -0.09334214	      0.95459914	     -0.04142226	     -7.96874051	     -4.73089237	     -0.58978990	    -38.67089281	      2.53977892	     15.85255972	      0.00000000	     33.27743562	      3.42432250	     -0.77025339	    -18.97139356	      4.16924519	     -3.42208731	      0.00000000	    -11.60759989	     -8.66199273	     12.61303229
      5.42000000	      3.63298325	     -4.06776022	   -186.52153050	     -0.11032963	      0.95531922	     -0.03893789	     -6.75048347	     -6.07964330	     -1.21991073	    -41.52993195	     -0.68215294	     15.78693129	      0.00000000	     33.22800787	      4.54749508	     -0.94659343	    -20.29180198	      2.99880914	     -3.86509233	      0.00000000	    -11.52298432	     -9.67876536	     11.64942196
      5.43000000	      3.60543934	     -4.80954462	   -186.03292601	     -0.12674095	      0.95637333	     -0.03649396	     -5.41258709	     -7.24460697	     -1.62281370	    -44.47997525	     -4.25903189	     15.32447856	      0.00000000	     33.05686651	      5.55120093	     -1.29403339	    -21.50558268	      2.45928160	     -3.57414303	      0.00000000	    -11.61936374	    -10.42232259	     10.99557777
      5.44000000	      3.56099004	     -5.50928005	   -185.58204386	     -0.14295904	      0.95775016	     -0.03418279	     -3.94555220	     -8.27834684	     -1.81394885	    -47.40516596	     -7.84592797	     13.71743079	      0.00000000	     32.72148751	      6.47023496	     -1.99309569	    -22.54189669	      2.55812013	     -2.52476398	      0.00000000	    -11.70541053	    -11.16604361	     10.22235583
      5.45000000	      3.49874257	     -6.06157451	   -185.05007699	     -0.15855759	      0.95935658	     -0.03163445	     -2.38464764	     -9.08034337	     -1.87926610	    -50.29408822	    -11.03581681	     12.09597020	      0.00000000	     32.33018964	      7.32517554	     -2.61009179	    -23.63761715	      3.27966231	     -0.84553720	      0.00000000	    -11.90735381	    -11.69098417	      9.32176792
